<svg width="17" height="20" viewBox="0 0 17 20" fill="none" xmlns="http://www.w3.org/2000/svg">
<path d="M0.97876 17V15H2.97876V8C2.97876 6.61667 3.39543 5.3875 4.22876 4.3125C5.06209 3.2375 6.14543 2.53333 7.47876 2.2V1.5C7.47876 1.08333 7.62459 0.729167 7.91626 0.4375C8.20793 0.145833 8.56209 0 8.97876 0C9.39543 0 9.74959 0.145833 10.0413 0.4375C10.3329 0.729167 10.4788 1.08333 10.4788 1.5V2.2C11.8121 2.53333 12.8954 3.2375 13.7288 4.3125C14.5621 5.3875 14.9788 6.61667 14.9788 8V15H16.9788V17H0.97876ZM8.97876 20C8.42876 20 7.95793 19.8042 7.56626 19.4125C7.17459 19.0208 6.97876 18.55 6.97876 18H10.9788C10.9788 18.55 10.7829 19.0208 10.3913 19.4125C9.99959 19.8042 9.52876 20 8.97876 20ZM4.97876 15H12.9788V8C12.9788 6.9 12.5871 5.95833 11.8038 5.175C11.0204 4.39167 10.0788 4 8.97876 4C7.87876 4 6.93709 4.39167 6.15376 5.175C5.37043 5.95833 4.97876 6.9 4.97876 8V15Z" fill="#353535"/>
</svg>
